<svg xmlns="http://www.w3.org/2000/svg"
     viewBox="0 -1 32 32"
     preserveAspectRatio="xMidYMid meet">

  <g transform="translate(0,32) scale(0.001332,-0.001332)"
     fill="#de6f0b"
     stroke="none">
    <path d="M4183 23013 c3 -939 7 -1312 16 -1378 43 -318 155 -617 354 -948 125 -208 371 -465 605 -630 68 -48 2702 -1701 5855 -3674 3153 -1973 5750 -3598 5773 -3613 l41 -25 -4774 -2985 c-2626 -1642 -4778 -2986 -4784 -2988 -5 -2 -9 1478 -9 4000 0 2585 -4 4051 -10 4138 -12 160 -30 291 -39 286 -3 -2 -7 16 -8 41 -3 60 -92 323 -154 453 -63 132 -153 287 -237 410 -95 137 -352 392 -505 499 -64 46 -127 91 -140 102 -12 10 -463 296 -1002 634 l-980 615 -3 -4184 c-1 -2301 -1 -6070 0 -8375 l3 -4191 9228 5769 c5075 3172 9229 5770 9232 5773 7 6 -12516 7841 -12532 7841 -7 0 -11 2 -8 5 6 6 -646 415 -662 415 -7 0 -10 4 -7 8 5 8 -35 25 -51 20 -5 -1 -7 1 -3 5 11 11 -30 36 -45 28 -6 -4 -9 -4 -5 1 10 10 -29 38 -41 30 -5 -3 -13 0 -17 6 -4 8 -3 9 4 5 7 -4 12 -5 12 -3 0 11 -103 66 -113 60 -7 -3 -8 -2 -4 2 10 11 -92 76 -107 68 -6 -3 -8 -2 -3 2 9 11 -94 76 -107 68 -5 -3 -7 -2 -4 3 4 6 -4628 2915 -4758 2987 -13 8 -15 -119 -11 -1280z"/>
  </g>
</svg>
